<svg width="1385" height="819" viewBox="0 0 1385 819" fill="none" xmlns="http://www.w3.org/2000/svg">
<path opacity="0.1" d="M191.783 811.504L1382 815.5V374.049M191.783 811.504L71 811.098V187.281C78.5489 163.804 107.235 113.58 161.587 100.5H870.559H1382V256.454M191.783 811.504V256.454H1382M1382 256.454V274.691M1382 374.049L740.34 373.42C729.128 374.165 727.46 363.056 727.758 358.328V285.381C726.687 276.839 727.772 273.279 740.34 274.691H1382M1382 374.049V274.691M787.521 326.885C791.044 321.351 788.989 314.937 787.521 312.422C781.482 304.373 774.1 307.81 771.165 310.535C765.629 317.075 768.858 323.741 771.165 326.256C778.21 334.306 785.004 330.03 787.521 326.885ZM787.521 326.885L800.102 338.833M384.5 27C388 22.5 397.7 16.2 408.5 27M114.5 15.5V83H3V49.25V15.5M114.5 15.5H3M114.5 15.5L58.5 49L3 15.5M1352 153.531V221.031H1240.5V187.281V153.531M1352 153.531H1240.5M1352 153.531L1296 187.031L1240.5 153.531M335 586.25V653.75H223.5V620V586.25M335 586.25H223.5M335 586.25L279 619.75L223.5 586.25M694 285.381V352.881H582.5V319.131V285.381M694 285.381H582.5M694 285.381L638 318.881L582.5 285.381M358.5 3V73.5H652.5V3H358.5Z" stroke="#434D59" stroke-width="5"/>
</svg>
