<svg width="505" height="456" viewBox="0 0 505 456" fill="none" xmlns="http://www.w3.org/2000/svg">
<path d="M2.5 181.216V452.855H502.5V181.216M2.5 181.216L89.977 212.618M2.5 181.216L89.977 119.374M502.5 181.216L402.132 217.646M502.5 181.216L402.132 109.472M89.977 212.618L253.881 271.456L402.132 217.646M89.977 212.618V119.374M402.132 217.646V109.472M89.977 119.374V70.7192H158.799M158.799 70.7192L253.881 3.5L347.918 70.7192M158.799 70.7192H347.918M402.132 109.472V70.7192H347.918" stroke="#041122" stroke-width="5"/>
<path d="M122.512 110.665H285.189V105.665H122.512V110.665ZM308.674 110.665H380.181V105.665H308.674V110.665ZM379.681 110.165V171.543H384.681V110.165H379.681ZM380.181 171.043H308.674V176.043H380.181V171.043ZM309.174 171.543V110.165H304.174V171.543H309.174ZM122.512 142.28H285.189V137.28H122.512V142.28ZM122.512 176.043H241.297V171.043H122.512V176.043ZM122.512 215.331H382.181V210.331H122.512V215.331ZM308.674 171.043C308.95 171.043 309.174 171.267 309.174 171.543H304.174C304.174 174.028 306.189 176.043 308.674 176.043V171.043ZM379.681 171.543C379.681 171.267 379.905 171.043 380.181 171.043V176.043C382.666 176.043 384.681 174.028 384.681 171.543H379.681ZM380.181 110.665C379.905 110.665 379.681 110.442 379.681 110.165H384.681C384.681 107.68 382.666 105.665 380.181 105.665V110.665ZM308.674 105.665C306.189 105.665 304.174 107.68 304.174 110.165H309.174C309.174 110.442 308.95 110.665 308.674 110.665V105.665Z" fill="#041122"/>
</svg>
