<svg width="19" height="26" viewBox="0 0 19 26" fill="none" xmlns="http://www.w3.org/2000/svg">
<path d="M11.1756 7.42297V0.782349H1.40999C0.760574 0.782349 0.238113 1.30481 0.238113 1.95422V24.6105C0.238113 25.2599 0.760574 25.7823 1.40999 25.7823H17.8162C18.4657 25.7823 18.9881 25.2599 18.9881 24.6105V8.59485H12.3475C11.703 8.59485 11.1756 8.0675 11.1756 7.42297ZM14.9085 17.7433L10.2005 22.4161C9.87581 22.7389 9.35139 22.7389 9.02669 22.4161L4.31868 17.7433C3.82307 17.2516 4.17073 16.4073 4.868 16.4073H8.05061V12.5011C8.05061 12.0695 8.40022 11.7198 8.83186 11.7198H10.3944C10.826 11.7198 11.1756 12.0695 11.1756 12.5011V16.4073H14.3582C15.0555 16.4073 15.4032 17.2516 14.9085 17.7433ZM18.6463 5.9093L13.866 1.12415C13.6463 0.904419 13.3485 0.782349 13.036 0.782349H12.7381V7.03235H18.9881V6.7345C18.9881 6.42688 18.866 6.12903 18.6463 5.9093Z" fill="white"/>
</svg>
