<svg width="1442" height="560" viewBox="0 0 1442 560" fill="none" xmlns="http://www.w3.org/2000/svg">
<path d="M152.919 323.781L118.615 345.628L158.274 353.112M177.061 379.379L191.904 285.224M416.523 271.219L457.534 278.049L421.878 300.55M15.4507 181.884L81.6064 544.249C87.6329 556.284 100.327 556.036 105.921 554.407C248.257 526.667 536.981 469.994 553.194 465.222C569.407 460.45 572.239 447.187 571.628 441.153C553.983 344.503 523.324 176.568 506.421 83.9857M15.4507 181.884L3.52098 116.539C1.72048 111.383 2.88327 99.7357 21.9383 94.397C40.9934 89.0584 328.06 32.7159 469.212 5.21198C476.509 3.50047 491.78 3.79022 494.492 18.6412C495.257 22.8324 499.776 47.5848 506.421 83.9857M15.4507 181.884L506.421 83.9857M317.918 80.0154L352.598 72.3307M403.059 52.2643L407.497 72.5428L374.661 80.2446L370.866 59.4531C370.757 58.8591 369.998 54.6987 369.631 52.6927L401.825 45.5039L403.059 52.2643ZM403.059 52.2643L369.8 59.6657M427.689 41.9661L459.62 65.6128M453.994 34.7969L435.107 70.5006" stroke="black" stroke-opacity="0.1" stroke-width="5"/>
<path d="M1340.77 89.6207V59.3949V25L1162.75 127.664V325.174L1340.77 365.301V335.596M1340.77 89.6207H1440V335.596H1340.77M1340.77 89.6207V110.466M1340.77 335.596V325.174M1340.77 110.466H1429.03V145.903H1340.77M1340.77 110.466V145.903M1340.77 145.903V176.129M1340.77 176.129H1429.03V213.651H1340.77M1340.77 176.129V213.651M1340.77 213.651V242.313M1340.77 242.313H1429.03V277.75H1340.77M1340.77 242.313V277.75M1340.77 277.75V293.906M1340.77 293.906H1429.03V325.174H1340.77M1340.77 293.906V325.174" stroke="black" stroke-opacity="0.1" stroke-width="3"/>
</svg>
